name Precision Landing13_filtered_grf.mot
datacolumns 37
datarows 9
range 0.002500 0.006500
endheader
time	1_ground_force_vx	1_ground_force_vy	1_ground_force_vz	1_ground_force_px	1_ground_force_py	1_ground_force_pz	1_ground_torque_x	1_ground_torque_y	1_ground_torque_z	2_ground_force_vx	2_ground_force_vy	2_ground_force_vz	2_ground_force_px	2_ground_force_py	2_ground_force_pz	2_ground_torque_x	2_ground_torque_y	2_ground_torque_z	3_ground_force_vx	3_ground_force_vy	3_ground_force_vz	3_ground_force_px	3_ground_force_py	3_ground_force_pz	3_ground_torque_x	3_ground_torque_y	3_ground_torque_z	4_ground_force_vx	4_ground_force_vy	4_ground_force_vz	4_ground_force_px	4_ground_force_py	4_ground_force_pz	4_ground_torque_x	4_ground_torque_y	4_ground_torque_z
            0.002500	            0.000000	            0.000000	           -0.000000	            0.123594	            0.000000	            0.385075	            0.000000	           -0.000000	           -0.000000	           -0.000000	            0.000000	           -0.000000	           -0.155640	            0.000000	            0.290391	            0.000000	            0.000000	            0.000000	          -15.626286	          396.484408	          123.728569	            0.353545	            1.253890	            1.890288	            0.752640	          -19.096670	           -5.959386	          -12.876422	          361.889778	           93.521442	           -0.289730	            1.264225	            1.901488	           -0.701620	           19.718909	            5.095863
            0.003000	            0.000000	            0.000000	           -0.000000	            0.123594	            0.000000	            0.385075	            0.000000	           -0.000000	           -0.000000	           -0.000000	            0.000000	           -0.000000	           -0.155640	            0.000000	            0.290391	            0.000000	            0.000000	            0.000000	          -15.871253	          397.836135	          123.900057	            0.353545	            1.253890	            1.890288	            0.763502	          -19.138295	           -5.960333	          -12.583646	          362.245879	           93.586546	           -0.289730	            1.264225	            1.901488	           -0.684581	           19.707069	            5.091339
            0.003500	            0.000000	            0.000000	            0.000000	            0.123594	            0.000000	            0.385075	            0.000000	           -0.000000	           -0.000000	           -0.000000	            0.000000	            0.000000	           -0.155640	            0.000000	            0.290391	            0.000000	            0.000000	            0.000000	          -16.109315	          399.217215	          124.074400	            0.353542	            1.253890	            1.890288	            0.774030	          -19.181822	           -5.961599	          -12.291337	          362.612222	           93.663742	           -0.289733	            1.264229	            1.901497	           -0.667639	           19.696322	            5.087615
            0.004000	            0.000000	            0.000000	            0.000000	            0.123594	            0.000000	            0.385075	            0.000000	           -0.000000	           -0.000000	           -0.000000	            0.000000	            0.000000	           -0.155640	            0.000000	            0.290391	            0.000000	            0.000000	            0.000000	          -16.339478	          400.625661	          124.250846	            0.353540	            1.253890	            1.890288	            0.784181	          -19.227247	           -5.963177	          -12.000187	          362.988726	           93.753401	           -0.289736	            1.264233	            1.901507	           -0.650832	           19.686747	            5.084730
            0.004500	            0.000000	            0.000000	            0.000000	            0.123594	            0.000000	            0.385075	            0.000000	            0.000000	           -0.000000	            0.000000	            0.000000	            0.000000	           -0.155640	            0.000000	            0.290391	            0.000000	            0.000000	            0.000000	          -16.560795	          402.059464	          124.428623	            0.353537	            1.253891	            1.890288	            0.793917	          -19.274560	           -5.965055	          -11.710862	          363.375316	           93.855829	           -0.289739	            1.264237	            1.901516	           -0.634196	           19.678419	            5.082718
            0.005000	            0.000000	            0.000000	            0.000000	            0.123594	            0.000000	            0.385075	            0.000000	            0.000000	           -0.000000	            0.000000	            0.000000	            0.000000	           -0.155640	            0.000000	            0.290391	            0.000000	            0.000000	            0.000000	          -16.772372	          403.516609	          124.606942	            0.353534	            1.253891	            1.890288	            0.803201	          -19.323747	           -5.967222	          -11.423992	          363.771927	           93.971265	           -0.289742	            1.264241	            1.901525	           -0.617766	           19.671404	            5.081609
            0.005500	            0.000000	            0.000000	            0.000000	            0.123594	            0.000000	            0.385075	            0.000000	            0.000000	           -0.000000	            0.000000	            0.000000	            0.000000	           -0.155640	            0.000000	            0.290391	            0.000000	            0.000000	            0.000000	          -16.974493	          404.992600	          124.792916	            0.353533	            1.253891	            1.890289	            0.812052	          -19.374671	           -5.970039	          -11.140117	          364.178969	           94.098066	           -0.289744	            1.264245	            1.901534	           -0.601570	           19.665785	            5.081327
            0.006000	            0.000000	            0.000000	            0.000000	            0.123594	            0.000000	            0.385075	            0.000000	            0.000000	           -0.000000	            0.000000	            0.000000	            0.000000	           -0.155640	            0.000000	            0.290391	            0.000000	            0.000000	            0.000000	          -17.165259	          406.487923	          124.977888	            0.353532	            1.253891	            1.890289	            0.820386	          -19.427429	           -5.973115	          -10.859853	          364.595924	           94.238137	           -0.289747	            1.264248	            1.901543	           -0.585640	           19.661589	            5.081986
            0.006500	            0.000000	            0.000000	            0.000000	            0.123594	            0.000000	            0.385075	            0.000000	            0.000000	           -0.000000	            0.000000	            0.000000	            0.000000	           -0.155640	            0.000000	            0.290391	            0.000000	           -0.000000	            0.000000	          -17.343968	          408.000611	          125.161053	            0.353530	            1.253891	            1.890289	            0.828173	          -19.481992	           -5.976429	          -10.583711	          365.022748	           94.391500	           -0.289749	            1.264252	            1.901552	           -0.570002	           19.658857	            5.083598
